<svg width="31" height="31" viewBox="0 0 31 31" fill="none" xmlns="http://www.w3.org/2000/svg">
<g clip-path="url(#clip0)">
<path d="M22.2208 0.377441H8.77869C4.21382 0.377441 0.5 4.09144 0.5 8.65631V22.0984C0.5 26.6634 4.21382 30.3773 8.77869 30.3773H22.2208C26.786 30.3773 30.4998 26.6633 30.4998 22.0984V8.65631C30.5 4.09144 26.786 0.377441 22.2208 0.377441ZM27.8383 22.0984C27.8383 25.1958 25.3183 27.7155 22.221 27.7155H8.77869C5.6815 27.7157 3.16173 25.1958 3.16173 22.0984V8.65631C3.16173 5.55912 5.6815 3.03917 8.77869 3.03917H22.2208C25.3181 3.03917 27.8381 5.55912 27.8381 8.65631V22.0984H27.8383Z" fill="#DDE3E3"/>
<path d="M15.4999 7.64722C11.2374 7.64722 7.76971 11.1149 7.76971 15.3774C7.76971 19.6397 11.2374 23.1073 15.4999 23.1073C19.7624 23.1073 23.2301 19.6397 23.2301 15.3774C23.2301 11.1149 19.7624 7.64722 15.4999 7.64722ZM15.4999 20.4453C12.7053 20.4453 10.4314 18.1719 10.4314 15.3772C10.4314 12.5824 12.7051 10.3088 15.4999 10.3088C18.2947 10.3088 20.5684 12.5824 20.5684 15.3772C20.5684 18.1719 18.2945 20.4453 15.4999 20.4453Z" fill="#DDE3E3"/>
<path d="M23.5543 5.39062C23.0415 5.39062 22.5377 5.59824 22.1755 5.96201C21.8116 6.32401 21.6024 6.82796 21.6024 7.34256C21.6024 7.85556 21.8117 8.35934 22.1755 8.72311C22.5375 9.08511 23.0415 9.2945 23.5543 9.2945C24.0689 9.2945 24.5711 9.08511 24.9348 8.72311C25.2986 8.35934 25.5062 7.85539 25.5062 7.34256C25.5062 6.82796 25.2986 6.32401 24.9348 5.96201C24.5728 5.59824 24.0689 5.39062 23.5543 5.39062Z" fill="#DDE3E3"/>
</g>
<defs>
<clipPath id="clip0">
<rect width="30" height="30" fill="white" transform="translate(0.5 0.377441)"/>
</clipPath>
</defs>
</svg>
