<svg width="200" height="99" viewBox="0 0 200 99" fill="none" xmlns="http://www.w3.org/2000/svg">
<g clip-path="url(#clip0)">
<path d="M18.7845 98.6696C15.3493 98.6696 12.2343 97.8123 9.43957 96.0978C6.64484 94.3832 4.43232 91.886 2.80205 88.606C1.23 85.2514 0.44397 81.226 0.44397 76.5296V64.5092V63.9501H15.2038V75.4114C15.2038 77.126 15.4658 78.505 15.9898 79.5487C16.5721 80.5177 17.4454 81.0024 18.6099 81.0024C19.7162 81.0024 20.5313 80.5551 21.0553 79.6605C21.6376 78.6914 21.9287 77.3496 21.9287 75.6351V1.72322H37.0378V73.7342C37.0378 78.7286 36.2518 83.1269 34.6797 86.9287C33.1659 90.656 31.0116 93.5632 28.2169 95.6505C25.4804 97.6633 22.3362 98.6696 18.7845 98.6696ZM60.6903 98.6696C54.6349 98.6696 50.0353 96.3214 46.8912 91.6251C43.7471 86.8541 42.175 80.1823 42.175 71.6096V25.876C42.175 17.6014 43.7471 11.3769 46.8912 7.20231C50.0353 2.95322 54.6349 0.828674 60.6903 0.828674C66.7456 0.828674 71.3453 2.95322 74.4894 7.20231C77.6335 11.3769 79.2056 17.6014 79.2056 25.876V71.6096C79.2056 80.2569 77.6335 86.9287 74.4894 91.6251C71.3453 96.3214 66.7456 98.6696 60.6903 98.6696ZM60.6903 81.0024C62.0294 81.0024 62.9319 80.2569 63.3977 78.766C63.8635 77.275 64.0964 75.1878 64.0964 72.5042V25.5405C64.0964 23.4532 63.8635 21.776 63.3977 20.5087C62.9901 19.1669 62.1168 18.496 60.7776 18.496C58.274 18.496 57.0222 20.9186 57.0222 25.7642V72.616C57.0222 75.3741 57.2842 77.4614 57.8082 78.8778C58.3322 80.2941 59.2929 81.0024 60.6903 81.0024ZM85.2604 97.7751V1.72322H100.107V40.1887L107.094 1.72322H122.203L113.819 45.6678L123.95 97.7751H108.404L100.195 51.2587V97.7751H85.2604ZM126.455 97.7751V1.72322H156.499V20.2851H141.739V38.9587H155.887V57.0733H141.739V79.1014H157.459V97.7751H126.455ZM162.447 1.72322H185.504C189.172 1.72322 191.996 2.80412 193.976 4.96595C196.013 7.05322 197.382 10.035 198.08 13.9114C198.779 17.7133 199.128 22.5959 199.128 28.5596C199.128 34.0014 198.576 38.2505 197.469 41.3069C196.362 44.3632 194.441 46.4878 191.705 47.6805C193.976 48.2769 195.606 49.7305 196.596 52.0414C197.644 54.3523 198.168 57.4832 198.168 61.4342L197.993 97.7751H183.321V60.2042C183.321 57.5205 182.913 55.8059 182.098 55.0605C181.283 54.315 179.798 53.9424 177.644 53.9424V97.7751H162.447V1.72322ZM181.312 37.2814C183.408 37.2814 184.456 34.3742 184.456 28.5596C184.456 26.025 184.369 24.1241 184.194 22.8569C184.019 21.5896 183.699 20.7324 183.233 20.2851C182.768 19.7632 182.098 19.5024 181.224 19.5024H177.731V37.2814H181.312Z" fill="#DDE3E3"/>
</g>
<defs>
<clipPath id="clip0">
<rect width="200" height="98.4" fill="white" transform="translate(0 0.568298)"/>
</clipPath>
</defs>
</svg>
