<svg width="31" height="31" viewBox="0 0 31 31" fill="none" xmlns="http://www.w3.org/2000/svg">
<path d="M27.5384 0.377441H3.53839C1.88839 0.377441 0.538391 1.72744 0.538391 3.37744V27.3774C0.538391 29.0274 1.88839 30.3774 3.53839 30.3774H27.5384C29.1884 30.3774 30.5384 29.0274 30.5384 27.3774V3.37744C30.5384 1.72744 29.1884 0.377441 27.5384 0.377441ZM24.0884 11.3274C23.9384 18.2274 19.5884 23.0274 12.9884 23.3274C10.2884 23.4774 8.33839 22.5774 6.53839 21.5274C8.48839 21.8275 11.0384 21.0775 12.3884 19.8774C10.4384 19.7274 9.23839 18.6774 8.63839 17.0274C9.23839 17.1774 9.83839 17.0274 10.2884 17.0274C8.48839 16.4274 7.28839 15.3774 7.13839 12.9774C7.58839 13.2774 8.18839 13.4274 8.78839 13.4274C7.43839 12.6774 6.53839 9.82744 7.58839 8.02744C9.53839 10.1274 11.9384 11.9274 15.8384 12.2274C14.7884 8.02744 20.4885 5.77744 22.7385 8.62744C23.7885 8.47744 24.5385 8.02744 25.2885 7.72744C24.9885 8.77744 24.3884 9.37744 23.6384 9.97744C24.3884 9.82744 25.1385 9.67744 25.7385 9.37744C25.5884 10.1274 24.8384 10.7274 24.0884 11.3274Z" fill="#F4F4F6"/>
</svg>
